/* XPM */
static char * jump_xpm[] = {
"64 64 22 1",
" 	c #72751B",
".	c #7F8226",
"+	c #787B21",
"@	c #656C17",
"#	c #BD9842",
"$	c #A2783C",
"%	c #C6A740",
"&	c #636917",
"*	c #9CA8AD",
"=	c #B3B0A9",
"-	c #A2814F",
";	c #3F3851",
">	c #7F8124",
",	c #91EA9C",
"'	c #48C38A",
")	c #37AB9C",
"!	c #686F16",
"~	c #298A91",
"{	c #F0F7F4",
"]	c #B2D3CF",
"^	c #8CA9B5",
"/	c #25667E",
"                                                           .    ",
"                                                          ++    ",
"                                                          ++    ",
"                                                          ++@   ",
"                                                          @@+.  ",
"                                                            ++  ",
"                                                            @@  ",
"      ##                                                        ",
"      ##                                                        ",
"     #$$## %%                         ..     .                  ",
"     &##&&%$%                          .++ +.                   ",
"      &&  %%&                       +..@+@++@                   ",
"          &&                         .++**++@  ==               ",
"                                     @+*--*@   -=               ",
"                                     @+*--*@   -=               ",
"                                      @&**&==  &&               ",
"                                        &&=-=                   ",
"                                          ==&                   ",
"                                          &&                    ",
"                                                                ",
"                                                                ",
"                                                                ",
"                                                                ",
"                        ;;;;;;               ;;;;;;             ",
"                        ;;;;;;               ;;;;;;             ",
"    >                  ;,,,,'';;;;;;;;;;;;;;;,,,,'';;           ",
"    >                  ;,,,,'';;;;;;;;;;;;;;;,,,,'';;           ",
"     >                 ;;;;;))'''',,,,'',''''));;;;;;           ",
"     ++                ;;;;;))'''',,,,'',''''));;;;;;           ",
"    !++                ;;;;;))'''',,,,'',''''));;;;;;           ",
"   >+!!                 ;;))'';;))'';;))'''''''~~;;             ",
"   >+!!                 ;;))'';;))'';;))'''''''~~;;             ",
"   ++                  ;;;''));;;;;;;;))''';;''~~;;    >        ",
"   !!                  ;;;''));;;;;;;;))''';;''~~;;  +++  >>+   ",
"                     ;;{;;));;,,,,'',,;;);;{{;;~~;;  ++! ++>    ",
"                     ;;{;;));;,,,,'',,;;);;{{;;~~;;>+!!  ++!    ",
"                     ;;{;;));;,,,,'',,;;);;{{;;~~;;++%%%++!+>   ",
"                     ;;{{{;;;;;;'''';;;;;{{{{;;~~;;++%%%++!+>   ",
"                     ;;{{{;;;;;;'''';;;;;{{{{;;~~;; %$$$%!++!   ",
"                     ;;]{{^^;;))''''));;^{{]];;~~;; &%%%&!+!    ",
"                     ;;]{{^^;;))''''));;^{{]];;~~;;  &&&  ##    ",
"                     ;;;^^;;;;;;;;;;;;;;;^^;;))''));;    #$$#   ",
"                     ;;;^^;;;;;;;;;;;;;;;^^;;))''));;    &##&   ",
"                     ;;';;;;;;;;;;;;;;;;;;;))'''''''';;  &##&   ",
"  >>      >          ;;';;;;;;;;;;;;;;;;;;;))'''''''';; %%&&    ",
"   >++ +>>           ;;';;;;;;;;;;;;;;;;;;;))'''''''';;%$%&     ",
"+>>!+!++!!           ;;';;//~~~~~~~~~~~~~))''''))))));;%%&      ",
" >+==!++!! >>   >    ;;';;//~~~~~~~~~~~~~))''''))))));;&&       ",
" !=--=+!    >> >       ;;;~~~~))''''''''''''''';;;;;;           ",
" !=--=+!    >> >       ;;;~~~~))''''''''''''''';;;;;;           ",
"  &==&      ++!+        ;;~~))'''''''''''''''''~~;;             ",
"   &&      **+!!        ;;~~))'''''''''''''''''~~;;           >>",
"          *--*          ;;~~))'''''''''''''''''~~;;      +  ++> ",
"          &**& **       ;;~~'''''''''''''''''''~~;;      >>!++! ",
"           &&  -*       ;;~~'''''''''''''''''''~~;;      >++!!  ",
"           &&  -*       ;;))'''''',,'',,,''''))//;;      >++!!  ",
"               &&       ;;))'''''',,'',,,''''))//;;      !++    ",
"                          ;;''));;;;;;;;;;;~~~~;;               ",
"                          ;;''));;;;;;;;;;;~~~~;;               ",
"                            ;;;;           ;;//;;               ",
"                            ;;;;           ;;//;;               ",
"                            ;;;;           ;;//;;               ",
"                                             ;;;;               ",
"                                             ;;;;               "};
