/* XPM */
static char * jump_xpm[] = {
"64 64 22 1",
" 	c #72751B",
".	c #7F8226",
"+	c #787B21",
"@	c #211F30",
"#	c #656C17",
"$	c #FFFFFF",
"%	c #F7EC8A",
"&	c #E1CA33",
"*	c #BD9842",
"=	c #A2783C",
"-	c #C6A740",
";	c #636917",
">	c #CE8B16",
",	c #B3B0A9",
"'	c #A2814F",
")	c #F2BC7E",
"!	c #E68D41",
"~	c #D2612F",
"{	c #B22E20",
"]	c #7F8124",
"^	c #686F16",
"/	c #9CA8AD",
"                                                           .    ",
"                                                          ++    ",
"                         @@@@@@@@@@@                      ++    ",
"                         @@@@@@@@@@@                      ++#   ",
"                     @@@@$$$$$%%%%%%@@@                   ##+.  ",
"                    @$$$$%%%%%%%%%%%%&&@@                   ++  ",
"                    @$$$$%%%%%%%%%%%%&&@@                   ##  ",
"      **          @@$%%%%%%%%%%%%%%%%%%&&@@                     ",
"      **          @@$%%%%%%%%%%%%%%%%%%&&@@                     ",
"     *==** --     @@%%%%%%%%%%%%%%%%%%%&&@@  .                  ",
"     ;**;;-=-     @@%%%%%%%%%%%%%%%%%%%&&@@+.                   ",
"      ;;  --;   @@$$>%%%%%%>>>>>%%%%%%%%%&&@#                   ",
"          ;;    @@@@@@@@@@@$$$$$>>%%%%%%%&&@#  ,,               ",
"                @@@@@@@@@@@$$$$$>>%%%%%%%&&@   ',               ",
"                @@)))!!!!!!@$$$$>>%%%%%%%&&@   ',               ",
"                @@)))!!!!!!@$$$$>>%%%%%%%&&@,  ;;               ",
"              @@))!!!!!!!!!~@@$$>>%%%%%%%&&@,                   ",
"              @@))!!!!!!!!!~@@$$>>%%%%%%%&&@;                   ",
"            @@))!!!!!!!!!!!!~~@@%%%%%%%%%&&@                    ",
"            @@))!!!!!!!!!!!!~~@@%%%%%%%%%&&@                    ",
"           @))!!!!!!!!!!!{{!~~@@%%%%%%%%%&&@  @@@@              ",
"         @@)!!!!!!!!!!!{{!!!~~@@%%%%%%%&&@@ @@%%&&@@@@@@@       ",
"         @@)!!!!!!!!!!!{{!!!~~@@%%%%%%%&&@@ @@%%&&@@@@@@@       ",
"       @@!!!!!!!!!!!!{{!!!!~@@&&%%%%%%%&&@@ @@%%&&@@&%%%%@@     ",
"       @@!!!!!!!!!!!!{{!!!!~@@&&%%%%%%%&&@@ @@%%&&@@&%%%%@@     ",
"    ]  @@!!!!!!!!!!!!{{!!~~@&&%%%%%%%&&@@   @@&&&&@@&&&&&@@     ",
"    ]  @@!!!!!!!!!!!!{{!!~~@&&%%%%%%%&&@@   @@&&&&@@&&&&&@@     ",
"     ] @@~~!!!!!!!!!@~~~~@@&%%%%%%&&@@@@@@@@@@@@&&&&&@@@@       ",
"     ++  @@~~~~~~~@@~~~@@&&%%%%%%%>>&&&%%%%%%%%%&&&&&&&@@@@     ",
"    ^++  @@~~~~~~~@@~~~@@&&%%%%%%%>>&&&%%%%%%%%%&&&&&&&@@@@     ",
"   ]+^^    @@@@@@@@@@@@&&%%%%%%%%%%%%%%%%%%%&&%%%%&&@&&%%%%@    ",
"   ]+^^    @@@@@@@@@@@@&&%%%%%%%%%%%%%%%%%%%&&%%%%&&@&&%%%%@    ",
"   ++             @@&&&%%%%%%%%%%%%%%%%%%%%%%%%%%%&&@@@&&&&@    ",
"   ^^             @@&&&%%%%%%%%%%%%%%%%%%%%%%%%%%%&&@@@&&&&@+   ",
"                @@%%%%%%%%%%%%%%%%%%%%%%%%%>>>%%%%&&@++@@@@]    ",
"                @@%%%%%%%%%%%%%%%%%%%%%%%%%>>>%%%%&&@^^@@@@^    ",
"                @@%%%%%%%%%%%%%%%%%%>>>%%%%%%%>>%%&&@---++^+]   ",
"              @@%%&&&%%%%%%%%%%%%%>>$%%%%%%%%%>>>>%%@---++^+]   ",
"              @@%%&&&%%%%%%%%%%%%%>>$%%%%%%%%%>>>>%%@===-^++^   ",
"              @@%%&&&%%%%%%%%%%%>>$$%%%%%%%%%%%%%%>>;---;^+^    ",
"              @@%%&&&%%%%%%%%%%%>>$$%%%%%%%%%%%%%%>> ;;;  **    ",
"         @@@@@@@&&%%%%%&&%%%%%%%>>$$%%%%%%%%%%%%%%>>     *==*   ",
"         @@@@@@@&&%%%%%&&%%%%%%%>>$$%%%%%%%%%%%%%%>>     ;**;   ",
"       @@!!~~~@@@@%%%%%%%%%%%%%%>>%%%%%%%%%%%%%%%%@@     ;**;   ",
"  ]] @@!!~~@@@~~~~@@&%%%%%%%%%%%>>%%%%%%%%%>>>>>@@@@    --;;    ",
"   ]+@@!!~~@@@~~~~@@&%%%%%%%%%%%>>%%%%%%%%%>>>>>@@@@   -=-;     ",
"+]]^+@@!!@@   @@@@~~&&&&&%%%%%&&>>&&%%%%%%%%&&&&@@     --;      ",
" ]+,,@@!!@@]] @@@@~~&&&&&%%%%%&&>>&&%%%%%%%%&&&&@@     ;;       ",
" ^,''@@!!@@ ]] ]  @@@&&&&&&&&&&&&&@@&&&&&&&&@@@@                ",
" ^,''@@!!@@ ]] ]  @@@&&&&&&&&&&&&&@@&&&&&&&&@@@@                ",
"  ;,,; @@@@ ++^+     @@@@&&&&&&&&&&&@@@@@@@@@@                  ",
"   ;;  @@@@//+^^     @@@@&&&&&&&&&&&@@@@@@@@@@                ]]",
"          /''/           @@@@@@@@@@@@@@@@@@~@@           +  ++] ",
"          ;//; //                   ^++;;@@~!!@@@@@@     ]]^++^ ",
"           ;;  '/                    ^^  @@~!!@@@@@@     ]++^^  ",
"           ;;  '/                    ^^    @~~!!!!@@     ]++^^  ",
"               ;;                          @~~!!!!@@     ^++    ",
"                                            @@@@@@              ",
"                                            @@@@@@              ",
"                                                                ",
"                                                                ",
"                                                                ",
"                                                                ",
"                                                                "};
