/* XPM */
static char * pig0_xpm[] = {
"64 64 110 2",
"  	c #72751B",
". 	c #7F8226",
"+ 	c #787B21",
"@ 	c #656C17",
"# 	c #BD9842",
"$ 	c #A2783C",
"% 	c #C6A740",
"& 	c #636917",
"* 	c #9CA8AD",
"= 	c #B3B0A9",
"- 	c #A2814F",
"; 	c #62645E",
"> 	c #61635F",
", 	c #666855",
"' 	c #585971",
") 	c #575873",
"! 	c #5E6067",
"~ 	c #D19981",
"{ 	c #E2A18E",
"] 	c #5F5B74",
"^ 	c #53546E",
"/ 	c #22222F",
"( 	c #40412B",
"_ 	c #DF9F8B",
": 	c #F1A89A",
"< 	c #615C74",
"[ 	c #53546D",
"} 	c #000000",
"| 	c #383908",
"1 	c #7F8124",
"2 	c #DE9F8B",
"3 	c #F0A799",
"4 	c #040508",
"5 	c #383A0E",
"6 	c #686F16",
"7 	c #5E647B",
"8 	c #5D637D",
"9 	c #64687F",
"0 	c #8E8E92",
"a 	c #92918C",
"b 	c #9C9C70",
"c 	c #96996F",
"d 	c #848643",
"e 	c #72839B",
"f 	c #72839D",
"g 	c #8995A6",
"h 	c #FBF9E1",
"i 	c #AAAB81",
"j 	c #A3A580",
"k 	c #A8A880",
"l 	c #CECDAF",
"m 	c #B8B895",
"n 	c #B3B494",
"o 	c #727B6A",
"p 	c #727B6C",
"q 	c #838978",
"r 	c #DEDCBF",
"s 	c #EAE8CD",
"t 	c #7E7E58",
"u 	c #7C7C58",
"v 	c #7A7A57",
"w 	c #787950",
"x 	c #7E803C",
"y 	c #C5C29F",
"z 	c #DDDABD",
"A 	c #7E7C6E",
"B 	c #7F7D6F",
"C 	c #7D7C65",
"D 	c #757825",
"E 	c #8C8D56",
"F 	c #9C9B6D",
"G 	c #CBC8A7",
"H 	c #D4D1B2",
"I 	c #CBC8AA",
"J 	c #C7C4A7",
"K 	c #C7C4A6",
"L 	c #676556",
"M 	c #676557",
"N 	c #676553",
"O 	c #636345",
"P 	c #6B6C36",
"Q 	c #8B8C54",
"R 	c #B8B592",
"S 	c #B2AF8D",
"T 	c #5D5B4D",
"U 	c #5E5C4D",
"V 	c #68693B",
"W 	c #6B6C3D",
"X 	c #8B8C55",
"Y 	c #63653B",
"Z 	c #747722",
"` 	c #797B31",
" .	c #CFCEB0",
"..	c #F8F6DE",
"+.	c #AEAC9A",
"@.	c #838171",
"#.	c #797B3D",
"$.	c #77792D",
"%.	c #717420",
"&.	c #7D7F28",
"*.	c #777925",
"=.	c #676E1C",
"-.	c #686E1A",
";.	c #D0CFB1",
">.	c #747633",
",.	c #C8C7A8",
"'.	c #F0EFD5",
").	c #A9A792",
"!.	c #7E7C69",
"~.	c #747631",
"                                                                                                                      .         ",
"                                                                                                                    + +         ",
"                                                                                                                    + +         ",
"                                                                                                                    + + @       ",
"                                                                                                                    @ @ + .     ",
"                                                                                                                        + +     ",
"                                                                                                                        @ @     ",
"            # #                                                                                                                 ",
"            # #                                                                                                                 ",
"          # $ $ # #   % %                                                   . .           .                                     ",
"          & # # & & % $ %                                                     . + +   + .                                       ",
"            & &     % % &                                               + . . @ + @ + + @                                       ",
"                    & &                                                   . + + * * + + @     = =                               ",
"                                                                          @ + * - - * @       - =                               ",
"                          ; > > > > > > > > ,                             @ + * - - * @       - =                               ",
"                          ' ) ) ) ) ) ) ) ) !                               @ & * * & = =     & &                               ",
"                          ' ) ) ) ) ) ) ) ) !                                   & & = - =                                       ",
"                          ' ) ) ) ) ) ) ) ) !                                       = = &                                       ",
"                          ' ) ) ) ) ) ) ) ) !                                       & &                                         ",
"                          ' ) ) ) ) ) ) ) ) !                                                                                   ",
"                ~ { { { { ] ) ) ) ^ / / / / (                                                                                   ",
"                _ : : : : < ) ) ) [ } } } } |                                                                                   ",
"                _ : : : : < ) ) ) [ } } } } |                                                                                   ",
"                _ : : : : < ) ) ) [ } } } } |                                                                                   ",
"                _ : : : : < ) ) ) [ } } } } |                                                                                   ",
"        1       2 3 3 3 3 < ) ) ) [ 4 4 4 4 5                                                                                   ",
"        1                 ' ) ) ) ) ) ) ) ) !                                                                                   ",
"          1               ' ) ) ) ) ) ) ) ) !                         + +                                                       ",
"          + +             ' ) ) ) ) ) ) ) ) !                         6 1 1                                                     ",
"        6 + +             ' ) ) ) ) ) ) ) ) !                           1 + +       +                                           ",
"      1 + 6 6             ' ) ) ) ) ) ) ) ) !                           6 + +   1 +                                             ",
"      1 + 6 6             7 8 8 8 9 0 0 0 0 a b b b b b b b b b b b b b c d +   1 +                                             ",
"      + +                 e f f f g h h h h h h h h h h h h h h h h h h h i + + % %                           1                 ",
"      6 6                 e f f f g h h h h h h h h h h h h h h h h h h h j 6 % $ $ %                     + + +     1 1 +       ",
"                          e f f f g h h h h h h h h h h h h h h h h h h h k   & % % & # #           +     + + 6   + + 1         ",
"                          e f f f g h h h h h h h h h h h h h h h h h h h k     & &   $ #             1 + 6 6     + + 6         ",
"                          e f f f g h h h h h h h h h h h h h h h h h h h k           & &             + + % % % + + 6 + 1       ",
"                          e f f f g h h h h h h h h h h h h h h h h h h h l m m m m m n n m m         + + % % % + + 6 + 1       ",
"                          e f f f g h h h h h h h h h h h h h h h h h h h h h h h h h h h h h           % $ $ $ % 6 + + 6       ",
"                          e f f f g h h h h h h h h h h h h h h h h h h h h h h h h h h h h h           & % % % & 6 + 6         ",
"                          e f f f g h h h h h h h h h h h h h h h h h h h h h h h h h h h h h             & & &     # #         ",
"                          e f f f g h h h h h h h h h h h h h h h h h h h h h h h h h h h h h 1 +                 # $ $ #       ",
"                          e f f f g h h h h h h h h h h h h h h h h h h h h h h h h h h h h h 1 + +               & # # &       ",
"                          o p p p q r r r r r r r r r s h h h h h h h h h h h h h h h h h h h t u u v w           & # # &       ",
"    1 1             1             x y y y y y y y y y z h h h h h h h h h h h h h h h h h h h A B B B C         % % & &         ",
"      1 + +   + 1 1               x y y y y y y y y y z h h h h h h h h h h h h h h h h h h h A B B B C       % $ % &           ",
"+ 1 1 6 + 6 + + 6 6               x y y y y y y y y y z h h h h h h h h h h h h h h h h h h h A B B B C       % % &             ",
"  1 + = = 6 + + 6 6   1 1       1 x y y y y y y y y y z h h h h h h h h h h h h h h h h h h h A B B B C       & &               ",
"  6 = - - = + 6         1 1   1   x y y y y y y y y y z h h h h h h h h h h h h h h h h h h h A B B B C                         ",
"  6 = - - = + 6         1 1   1   D E E E E F y y y y G H H H H H H H H H I J J J J J J J J K L M M M N O O O O O O O O O P     ",
"    & = = &             + + 6 +             Q y y y y y y y y y y y y y y R S S S S S S S S S T U U U U U U U U U U U U U V     ",
"      & &             * * + 6 6             Q y y y y y y y y y y y y y y R S S S S S S S S S T U U U U U U U U U U U U U V 1 1 ",
"                    * - - *                 Q y y y y y y y y y y y y y y R S S S S S S S S S T U U U U U U U U U U U U U W 1   ",
"                    & * * &   * *           Q y y y y y y y y y y y y y y R S S S S S S S S S T U U U U U U U U U U U U U W 6   ",
"                      & &     - *           X y y y y y y y y y y y y y y R S S S S S S S S S T U U U U U U U U U U U U U Y     ",
"                      & &     - *           Z ` ` ` ` ` ` ` ` `  .........+.@.@.@.@.#.$.$.$.$.%.%.%.%.%.%.%.%.%.%.&.*.*.=.-.    ",
"                              & &                               ;.h h h h +.B B B B >.                            6 + +         ",
"                                                                ;.h h h h +.B B B B >.                                          ",
"                                                                ;.h h h h +.B B B B >.                                          ",
"                                                                ;.h h h h +.B B B B >.                                          ",
"                                                                ,.'.'.'.'.).!.!.!.!.~.                                          ",
"                                                                                                                                ",
"                                                                                                                                ",
"                                                                                                                                "};
