/* XPM */
static char * pig1_xpm[] = {
"64 64 117 2",
"  	c #72751B",
". 	c #7F8226",
"+ 	c #787B21",
"@ 	c #676951",
"# 	c #595A71",
"$ 	c #646658",
"% 	c #656C17",
"& 	c #676952",
"* 	c #575873",
"= 	c #64665A",
"- 	c #BD9842",
"; 	c #C29274",
"> 	c #9C7C73",
", 	c #3D3D51",
"' 	c #3C3D51",
") 	c #585A40",
"! 	c #A2783C",
"~ 	c #F1A89A",
"{ 	c #BE8A8A",
"] 	c #030305",
"^ 	c #000000",
"/ 	c #4C4E0F",
"( 	c #636917",
"_ 	c #9CA8AD",
": 	c #B3B0A9",
"< 	c #EAA594",
"[ 	c #E9A494",
"} 	c #B88886",
"| 	c #171822",
"1 	c #161620",
"2 	c #4E511E",
"3 	c #A2814F",
"4 	c #6E7567",
"5 	c #6A7690",
"6 	c #697690",
"7 	c #D4D2C3",
"8 	c #D5D3C4",
"9 	c #D6D5C0",
"0 	c #D8D7BB",
"a 	c #AFAE85",
"b 	c #AEAC84",
"c 	c #777A2C",
"d 	c #727C70",
"e 	c #72839D",
"f 	c #71829D",
"g 	c #FAF8E1",
"h 	c #FBF9E1",
"i 	c #C7C4A1",
"j 	c #C5C29F",
"k 	c #797C32",
"l 	c #D4D2B3",
"m 	c #D3D0B1",
"n 	c #CDCAAA",
"o 	c #8F905A",
"p 	c #8B8B53",
"q 	c #757825",
"r 	c #7F8124",
"s 	c #E7E4C9",
"t 	c #7E803C",
"u 	c #686F16",
"v 	c #727639",
"w 	c #72784D",
"x 	c #71774C",
"y 	c #FAF8E0",
"z 	c #B2AF92",
"A 	c #908E7A",
"B 	c #7F7D67",
"C 	c #7D7C65",
"D 	c #797951",
"E 	c #ADAB8E",
"F 	c #7F7D6F",
"G 	c #7A7A59",
"H 	c #D2D1B4",
"I 	c #D3D2B5",
"J 	c #E5E4C9",
"K 	c #BEBB99",
"L 	c #BEBB98",
"M 	c #AFAC8E",
"N 	c #96937C",
"O 	c #787566",
"P 	c #737163",
"Q 	c #706F54",
"R 	c #6B6C35",
"S 	c #737438",
"T 	c #6F7037",
"U 	c #646834",
"V 	c #727430",
"W 	c #BDBD9C",
"X 	c #B3B08E",
"Y 	c #B2AF8D",
"Z 	c #6B6956",
"` 	c #5E5C4D",
" .	c #62643E",
"..	c #696940",
"+.	c #8D7849",
"@.	c #8C8A7B",
"#.	c #807E70",
"$.	c #7B7B5A",
"%.	c #747622",
"&.	c #72751D",
"*.	c #7E8025",
"=.	c #787A22",
"-.	c #BC9742",
";.	c #A1783C",
">.	c #8B897B",
",.	c #C6A740",
"'.	c #9A9B6D",
").	c #C0BF9E",
"!.	c #FAF8DF",
"~.	c #7E7E57",
"{.	c #78794E",
"].	c #76773F",
"^.	c #F8F6DE",
"/.	c #D1D0B2",
"(.	c #EDECD2",
"_.	c #F0EED5",
":.	c #C8C8A9",
"                                                                                                                      .         ",
"                                                                                                                    + +         ",
"                                                                                                                    + +         ",
"                          @ # # # # # # # # $                                                                       + + %       ",
"                          & * * * * * * * * =                                                                       % % + .     ",
"                          & * * * * * * * * =                                                                           + +     ",
"                          & * * * * * * * * =                                                                           % %     ",
"            - -           & * * * * * * * * =                                                                                   ",
"            - -   ; ; ; ; > * * * * , ' ' ' )                                                                                   ",
"          - ! ! - ~ ~ ~ ~ { * * * * ] ^ ^ ^ /                               . .           .                                     ",
"          ( - - ( ~ ~ ~ ~ { * * * * ] ^ ^ ^ /                                 . + +   + .                                       ",
"            ( (   ~ ~ ~ ~ { * * * * ] ^ ^ ^ /                           + . . % + % + + %                                       ",
"                  ~ ~ ~ ~ { * * * * ] ^ ^ ^ /                             . + + _ _ + + %     : :                               ",
"                  < [ [ [ } * * * * | 1 1 1 2                             % + _ 3 3 _ %       3 :                               ",
"                          & * * * * * * * * =                             % + _ 3 3 _ %       3 :                               ",
"                          & * * * * * * * * =                               % ( _ _ ( : :     ( (                               ",
"                          & * * * * * * * * =                                   ( ( : 3 :                                       ",
"                          & * * * * * * * * =                                       : : (                                       ",
"                          & * * * * * * * * =                                       ( (                                         ",
"                          4 5 5 5 6 7 8 8 8 9 0 0 0 0 a b b b b b b b b c                                                       ",
"                          d e e e f g h h h h h h h h i j j j j j j j j k                                                       ",
"                          d e e e f g h h h h h h h h i j j j j j j j j k                                                       ",
"                          d e e e f g h h h h h h h h i j j j j j j j j k                                                       ",
"                          d e e e f g h h h h h h h h i j j j j j j j j k                                                       ",
"                          d e e e f g h h h h h h h h l m m m n j j j j o p p p p p p p p q                                     ",
"        r                 d e e e f g h h h h h h h h h h h h s j j j j j j j j j j j j j t                                     ",
"        r                 d e e e f g h h h h h h h h h h h h s j j j j j j j j j j j j j t                                     ",
"          r               d e e e f g h h h h h h h h h h h h s j j j j j j j j j j j j j t                                     ",
"          + +             d e e e f g h h h h h h h h h h h h s j j j j j j j j j j j j j t                                     ",
"        u + +             d e e e f g h h h h h h h h h h h h s j j j j j j j j j j j j j t                                     ",
"      r + u u             v w w w x y h h h h h h h h h h h h s j j j j j j j j z A A A A B C C C D                             ",
"      r + u u                       y h h h h h h h h h h h h s j j j j j j j j E F F F F F F F F G                             ",
"      + +                           y h h h h h h h h h h h h s j j j j j j j j E F F F F F F F F G           r                 ",
"      u u                           y h h h h h h h h h h h h s j j j j j j j j E F F F F F F F F G       + + +     r r +       ",
"                                    y h h h h h h h h h h h h s j j j j j j j j E F F F F F F F F G +     + + u   + + r         ",
"                                    H I I I J h h h h h h h h s j j j j K L L L M N N N N O P P P Q R S T U U R R T V u         ",
"                                            W h h h h h h h h s j j j j X Y Y Y Y Y Y Y Y Z ` ` ` ` ` ` ` ` ` ` ` `  .+ r       ",
"                                            W h h h h h h h h s j j j j X Y Y Y Y Y Y Y Y Z ` ` ` ` ` ` ` ` ` ` ` `  .+ r       ",
"                                            W h h h h h h h h s j j j j X Y Y Y Y Y Y Y Y Z ` ` ` ` ` ` ` ` ` ` ` ` ..+ u       ",
"                                            W h h h h h h h h s j j j j X Y Y Y Y Y Y Y Y Z ` ` ` ` ` ` ` ` ` ` ` ` ..u         ",
"                                            W h h h h h h h h s j j j j X Y Y Y Y Y Y Y Y Z ` ` ` ` ` ` ` ` ` ` ` ` +.-         ",
"                                            W h h h h h h h h h y y y y @.#.#.#.$.%.%.%.%.&.*.*.=.&.&.&.&.&.&.&.&.-.;.! -       ",
"                                            W h h h h h h h h h h h h h >.F F F G             r + +               ( - - (       ",
"                                            W h h h h h h h h h h h h h >.F F F G             r + +               ( - - (       ",
"    r r             r                       W h h h h h h h h h h h h h >.F F F G             u + +             ,.,.( (         ",
"      r + +   + r r                         W h h h h h h h h h h h h h >.F F F G               u u           ,.! ,.(           ",
"+ r r u + u + + u u                         '.).).).).!.h h h J ).).).).~.{.{.{.].                            ,.,.(             ",
"  r + : : u + + u u   r r       r                     ^.h h h /.                                              ( (               ",
"  u : 3 3 : + u         r r   r                       ^.h h h /.                                                                ",
"  u : 3 3 : + u         r r   r                       ^.h h h /.                                                                ",
"    ( : : (             + + u +                       ^.h h h /.      r r         + +                                           ",
"      ( (             _ _ + u u                       (._._._.:.        r +   ,.,.+                                         r r ",
"                    _ 3 3 _                                             u + + ,.! +                               +     + + r   ",
"                    ( _ _ (   _ _                                       u + + ( ( u                               r r u + + u   ",
"                      ( (     3 _                                         u u                                     r + + u u     ",
"                      ( (     3 _                                         u u                                     r + + u u     ",
"                              ( (                                                                                 u + +         ",
"                                                                                                                                ",
"                                                                                                                                ",
"                                                                                                                                ",
"                                                                                                                                ",
"                                                                                                                                ",
"                                                                                                                                ",
"                                                                                                                                "};
