/* XPM */
static char * beer_xpm[] = {
"64 64 509 2",
"  	c #72751B",
". 	c #7F8226",
"+ 	c #787B21",
"@ 	c #FFFFFF",
"# 	c #656C17",
"$ 	c #E5D3AF",
"% 	c #E6D3B2",
"& 	c #E5D3AB",
"* 	c #E0CDA8",
"= 	c #E2D1AB",
"- 	c #E4D2AB",
"; 	c #EEDDBD",
"> 	c #F8EBD0",
", 	c #F9ECD3",
"' 	c #F5E7C8",
") 	c #E7D6B2",
"! 	c #BD9842",
"~ 	c #D8BF96",
"{ 	c #E0C8A4",
"] 	c #EAD8B8",
"^ 	c #F0E0BF",
"/ 	c #F5E5C6",
"( 	c #F4E7C8",
"_ 	c #EFDDBD",
": 	c #F9ECD2",
"< 	c #FEF1D8",
"[ 	c #FFF4DA",
"} 	c #FDF0D6",
"| 	c #F1E1C3",
"1 	c #A2783C",
"2 	c #C6A740",
"3 	c #636917",
"4 	c #C2A872",
"5 	c #D2BC8D",
"6 	c #ECDCB9",
"7 	c #F3E2C6",
"8 	c #F6E6C8",
"9 	c #F4E7C9",
"0 	c #F6E7CE",
"a 	c #FAEED1",
"b 	c #FBF0D5",
"c 	c #FBF0D6",
"d 	c #FFF5DB",
"e 	c #FFF5DD",
"f 	c #FFF4DB",
"g 	c #FAEED5",
"h 	c #F5E6C9",
"i 	c #EEDDB8",
"j 	c #744726",
"k 	c #C7A672",
"l 	c #DFC8A3",
"m 	c #EBD8B8",
"n 	c #F0E1C2",
"o 	c #EFE0BF",
"p 	c #F3E4C6",
"q 	c #F9E9CD",
"r 	c #FBEFD5",
"s 	c #FAEFD5",
"t 	c #FFF1D6",
"u 	c #FFF4D8",
"v 	c #FFF6DB",
"w 	c #EEE0BA",
"x 	c #B3A992",
"y 	c #B5AB94",
"z 	c #B5AB92",
"A 	c #B5A992",
"B 	c #774726",
"C 	c #764C26",
"D 	c #D8BF95",
"E 	c #E0C9A1",
"F 	c #E5CEA8",
"G 	c #E5D1A5",
"H 	c #E9D3AF",
"I 	c #F4E2C4",
"J 	c #F9ECD1",
"K 	c #FAECD1",
"L 	c #F9EBCD",
"M 	c #F6EACB",
"N 	c #FFF8DF",
"O 	c #FFF9E0",
"P 	c #FFF3DB",
"Q 	c #F5E6C6",
"R 	c #BCB39E",
"S 	c #BEB39F",
"T 	c #BEB59F",
"U 	c #BFB79F",
"V 	c #BCB39C",
"W 	c #6F4521",
"X 	c #81582E",
"Y 	c #7D502D",
"Z 	c #815431",
"` 	c #B38B5B",
" .	c #BA905F",
"..	c #BE9562",
"+.	c #EAD6A9",
"@.	c #F3E4C1",
"#.	c #F4E2BF",
"$.	c #F0DFAF",
"%.	c #EEDCA9",
"&.	c #F3E2BD",
"*.	c #FBEFD3",
"=.	c #FFF6DC",
"-.	c #FFF6DD",
";.	c #FFF5DC",
">.	c #F5EACB",
",.	c #B8AD97",
"'.	c #998871",
").	c #95836E",
"!.	c #95856E",
"~.	c #97866F",
"{.	c #82562E",
"].	c #875E33",
"^.	c #91683A",
"/.	c #96693D",
"(.	c #875B35",
"_.	c #8C5E37",
":.	c #C19662",
"<.	c #E4C88C",
"[.	c #E7D196",
"}.	c #E7D292",
"|.	c #CC9F6D",
"1.	c #CDA16E",
"2.	c #EFDBA9",
"3.	c #F6E9CD",
"4.	c #FFF8DC",
"5.	c #FDF1D5",
"6.	c #F4E5C7",
"7.	c #EAD7AE",
"8.	c #B2A991",
"9.	c #978771",
"0.	c #92816C",
"a.	c #95826E",
"b.	c #96856F",
"c.	c #998872",
"d.	c #9E8B76",
"e.	c #B2A899",
"f.	c #956A3D",
"g.	c #9A6E40",
"h.	c #A07645",
"i.	c #B58B59",
"j.	c #A67649",
"k.	c #A47347",
"l.	c #AA774B",
"m.	c #D1A66E",
"n.	c #CEA36E",
"o.	c #CEA16D",
"p.	c #F9EBCE",
"q.	c #FFF4DC",
"r.	c #FFF6DF",
"s.	c #F9ECCE",
"t.	c #EADAB2",
"u.	c #95866F",
"v.	c #94856E",
"w.	c #624F3B",
"x.	c #71563D",
"y.	c #785D42",
"z.	c #7B644C",
"A.	c #836D56",
"B.	c #B9AF9F",
"C.	c #A07745",
"D.	c #B48858",
"E.	c #9A6A41",
"F.	c #C49764",
"G.	c #CD9C68",
"H.	c #CE9F6C",
"I.	c #B27E54",
"J.	c #AD7B51",
"K.	c #ECD7A0",
"L.	c #F6E7C4",
"M.	c #FFF3D5",
"N.	c #F9ECD0",
"O.	c #EBDAB2",
"P.	c #8F806A",
"Q.	c #91816A",
"R.	c #5E4B38",
"S.	c #6F553C",
"T.	c #765D44",
"U.	c #7E674E",
"V.	c #876F59",
"W.	c #A19482",
"X.	c #C1B7A6",
"Y.	c #B98F5B",
"Z.	c #9C6D42",
"`.	c #CB9E67",
" +	c #D1A46F",
".+	c #D5A672",
"++	c #D7A872",
"@+	c #E5CB8C",
"#+	c #F4E1BA",
"$+	c #F9E9CB",
"%+	c #FFF1D5",
"&+	c #FFF3D6",
"*+	c #FFF3D7",
"=+	c #FDEFD3",
"-+	c #F1E2BF",
";+	c #877462",
">+	c #8B7964",
",+	c #5B4937",
"'+	c #7B5E45",
")+	c #80684F",
"!+	c #8A7159",
"~+	c #907B64",
"{+	c #9F8A72",
"]+	c #C6B8A4",
"^+	c #CEC3B0",
"/+	c #D7CCBC",
"(+	c #D5A86F",
"_+	c #D7A972",
":+	c #D8A972",
"<+	c #E4CB8F",
"[+	c #F0DDB3",
"}+	c #F5E5C4",
"|+	c #F9E9C9",
"1+	c #F8E9C8",
"2+	c #F6EBCC",
"3+	c #ECDAB2",
"4+	c #806E5B",
"5+	c #877662",
"6+	c #5B4A36",
"7+	c #693D1D",
"8+	c #816A51",
"9+	c #8B735A",
"0+	c #927E64",
"a+	c #A18D73",
"b+	c #AD9B85",
"c+	c #B8A990",
"d+	c #C4B49A",
"e+	c #E0D8C7",
"f+	c #E7DFCB",
"g+	c #EAE2CD",
"h+	c #EAE4CD",
"i+	c #E5CE8D",
"j+	c #E9D397",
"k+	c #E5D5A9",
"l+	c #E5D1A4",
"m+	c #E9D297",
"n+	c #F0E1B5",
"o+	c #EEDDB7",
"p+	c #7F8124",
"q+	c #796A55",
"r+	c #82735E",
"s+	c #584532",
"t+	c #693B1A",
"u+	c #764926",
"v+	c #88735A",
"w+	c #947D65",
"x+	c #A38D76",
"y+	c #AF9E86",
"z+	c #BCAA91",
"A+	c #C6B79A",
"B+	c #CEBCA3",
"C+	c #D2C3A8",
"D+	c #D5C4AA",
"E+	c #D3C3AA",
"F+	c #E4DCCB",
"G+	c #E2D7BD",
"H+	c #E1D7C7",
"I+	c #DFD6C4",
"J+	c #DBD2C1",
"K+	c #EBD6A9",
"L+	c #F1E0BD",
"M+	c #E6D3A8",
"N+	c #766350",
"O+	c #7B6A55",
"P+	c #53412E",
"Q+	c #683B1A",
"R+	c #80512B",
"S+	c #794B28",
"T+	c #948067",
"U+	c #A08F76",
"V+	c #AF9C87",
"W+	c #BAA990",
"X+	c #C7B599",
"Y+	c #CBB9A0",
"Z+	c #D0BFA6",
"`+	c #D0C1A8",
" @	c #D0C1A5",
".@	c #CDBDA1",
"+@	c #C8B49F",
"@@	c #BFAD94",
"#@	c #B8A488",
"$@	c #E0C17E",
"%@	c #EAD5A8",
"&@	c #EFDFBA",
"*@	c #E4D0A4",
"=@	c #686F16",
"-@	c #6D5949",
";@	c #766451",
">@	c #513F2C",
",@	c #584431",
"'@	c #594533",
")@	c #653B19",
"!@	c #82532D",
"~@	c #906338",
"{@	c #8B6237",
"]@	c #92673C",
"^@	c #AD9A85",
"/@	c #B7A68D",
"(@	c #C2B097",
"_@	c #C7B79C",
":@	c #CCBDA1",
"<@	c #CDBC9F",
"[@	c #C8B9A0",
"}@	c #C6B09B",
"|@	c #B9A88B",
"1@	c #B29C80",
"2@	c #DCBC79",
"3@	c #E5CE9C",
"4@	c #E4D1A9",
"5@	c #DDCB9B",
"6@	c #685644",
"7@	c #6E5B4B",
"8@	c #4F3C2B",
"9@	c #503D2B",
"0@	c #564430",
"a@	c #633617",
"b@	c #82542C",
"c@	c #906738",
"d@	c #A67B49",
"e@	c #8B5D35",
"f@	c #A9794B",
"g@	c #AA7D4E",
"h@	c #AD8153",
"i@	c #AB7D4F",
"j@	c #C7B89B",
"k@	c #C3B59A",
"l@	c #C3B497",
"m@	c #BDAA91",
"n@	c #B7A086",
"o@	c #AA967B",
"p@	c #D8BA79",
"q@	c #DAC38A",
"r@	c #5F4E3C",
"s@	c #695846",
"t@	c #64513F",
"u@	c #695644",
"v@	c #51402B",
"w@	c #623617",
"x@	c #744621",
"y@	c #805129",
"z@	c #916336",
"A@	c #A87B4A",
"B@	c #885932",
"C@	c #C39660",
"D@	c #C69E64",
"E@	c #CCA56E",
"F@	c #CDAA72",
"G@	c #B08254",
"H@	c #B48856",
"I@	c #A97E4F",
"J@	c #B8A690",
"K@	c #B3A187",
"L@	c #AE997D",
"M@	c #976840",
"N@	c #8B5B33",
"O@	c #5B4B3A",
"P@	c #5E4C3A",
"Q@	c #685541",
"R@	c #5E452E",
"S@	c #867463",
"T@	c #76451F",
"U@	c #805029",
"V@	c #905E33",
"W@	c #A47746",
"X@	c #85552E",
"Y@	c #BE915B",
"Z@	c #C49C65",
"`@	c #CCA46D",
" #	c #CDAA73",
".#	c #CBAA72",
"+#	c #D2B57E",
"@#	c #9A6A40",
"##	c #966A40",
"$#	c #8C603B",
"%#	c #8A5A35",
"&#	c #875633",
"*#	c #5B442D",
"=#	c #72451F",
"-#	c #7D4E26",
";#	c #885830",
">#	c #A37644",
",#	c #82532C",
"'#	c #BD915A",
")#	c #C39A62",
"!#	c #C7A369",
"~#	c #CBA871",
"{#	c #C8A671",
"]#	c #D0B47C",
"^#	c #91653B",
"/#	c #AE8553",
"(#	c #A5794B",
"_#	c #9C7142",
":#	c #80512D",
"<#	c #5B4129",
"[#	c #624A33",
"}#	c #877360",
"|#	c #7D4C26",
"1#	c #9E7441",
"2#	c #7B4B26",
"3#	c #B0814B",
"4#	c #BA8B58",
"5#	c #BF965F",
"6#	c #C6A068",
"7#	c #C6A36C",
"8#	c #CCB079",
"9#	c #95693D",
"0#	c #AB824F",
"a#	c #A37B49",
"b#	c #9A6F42",
"c#	c #855B33",
"d#	c #58402B",
"e#	c #624A31",
"f#	c #6D553C",
"g#	c #92806A",
"h#	c #A17644",
"i#	c #784724",
"j#	c #AD7D49",
"k#	c #B58651",
"l#	c #BC915B",
"m#	c #BE995F",
"n#	c #C39B64",
"o#	c #C9AE73",
"p#	c #8D5D36",
"q#	c #A47B49",
"r#	c #976F40",
"s#	c #8F643A",
"t#	c #774B27",
"u#	c #B3B0A9",
"v#	c #A2814F",
"w#	c #512B0D",
"x#	c #5E4630",
"y#	c #68513A",
"z#	c #765F4B",
"A#	c #9F8D78",
"B#	c #A89B87",
"C#	c #A87842",
"D#	c #B0814C",
"E#	c #B88C53",
"F#	c #BC925B",
"G#	c #C6A66C",
"H#	c #885931",
"I#	c #A37946",
"J#	c #91653C",
"K#	c #764C28",
"L#	c #A99781",
"M#	c #4E240A",
"N#	c #673B1A",
"O#	c #654E38",
"P#	c #775F4A",
"Q#	c #7D6851",
"R#	c #87725D",
"S#	c #ABA18A",
"T#	c #B8AE95",
"U#	c #BEB39C",
"V#	c #BFB5A0",
"W#	c #C1A16C",
"X#	c #81532C",
"Y#	c #9A713D",
"Z#	c #92673A",
"`#	c #B4A991",
" $	c #AFA38B",
".$	c #6A5641",
"+$	c #9CA8AD",
"@$	c #562C0E",
"#$	c #6A3D1A",
"$$	c #715E4A",
"%$	c #7B6751",
"&$	c #85715D",
"*$	c #8C7B67",
"=$	c #97836F",
"-$	c #9E8A76",
";$	c #9F8D7B",
">$	c #BFB49B",
",$	c #C2B59B",
"'$	c #C1B59B",
")$	c #BEB297",
"!$	c #816D56",
"~$	c #7B644E",
"{$	c #65503D",
"]$	c #4B230A",
"^$	c #5E3213",
"/$	c #6F411F",
"($	c #806F59",
"_$	c #887660",
":$	c #998673",
"<$	c #9C8C74",
"[$	c #9B8C74",
"}$	c #978871",
"|$	c #92806C",
"1$	c #87735F",
"2$	c #6D5A42",
"3$	c #69553F",
"4$	c #673A19",
"5$	c #6C3D1A",
"6$	c #815328",
"7$	c #875A2C",
"8$	c #92826D",
"9$	c #968672",
"0$	c #96876F",
"a$	c #94816D",
"b$	c #8C7865",
"c$	c #77634E",
"d$	c #623615",
"e$	c #643817",
"f$	c #683C19",
"g$	c #6A3C1C",
"h$	c #5D3113",
"i$	c #5D3012",
"j$	c #592D0E",
"                                                                                                                      .         ",
"                                                                                                                    + +         ",
"                                                                                    @ @ @ @ @ @                     + +         ",
"                                                                                    @ @ @ @ @ @                     + + #       ",
"                                                                @ @ @ @ @ @     @ @ $ $ % % & & @ @                 # # + .     ",
"                                                                @ @ @ @ @ @     @ @ $ $ % % & & @ @                     + +     ",
"                                                    @ @ @ @ @ @ * * = = - - @ @ ; ; > > , , ' ' ) ) @ @                 # #     ",
"            ! !                                     @ @ @ @ @ @ * * = = - - @ @ ; ; > > , , ' ' ) ) @ @                         ",
"            ! !                             @ @ @ @ ~ ~ { { ] ] ^ ^ / / ( ( _ _ : : < < [ [ } } | | @ @ @ @                     ",
"          ! 1 1 ! !   2 2                   @ @ @ @ ~ ~ { { ] ] ^ ^ / / ( ( _ _ : : < < [ [ } } | | @ @ @ @                     ",
"          3 ! ! 3 3 2 1 2               @ @ 4 4 5 5 6 6 7 7 8 8 9 9 0 0 a a b b c c d d e e f f g g h h i i @ @                 ",
"            3 3     2 2 3               @ @ 4 4 5 5 6 6 7 7 8 8 9 9 0 0 a a b b c c d d e e f f g g h h i i @ @                 ",
"                    3 3 @ @ @ @ @ @ @ @ j j k k l l m m n n o o p p q q r r } } s s t t u u u u v v f f a a w w @ @             ",
"                        @ @ @ @ @ @ @ @ j j k k l l m m n n o o p p q q r r } } s s t t u u u u v v f f a a w w @ @             ",
"                    @ @ x x y y z z A A B B C C D D E E F F G G H H I I J J K K L L M M : : [ [ N N O O P P Q Q @ @             ",
"                    @ @ x x y y z z A A B B C C D D E E F F G G H H I I J J K K L L M M : : [ [ N N O O P P Q Q @ @             ",
"                @ @ R R S S T T U U V V W W X X Y Y Z Z ` `  . .....+.+.@.@.#.#.$.$.%.%.&.&.*.*.=.=.-.-.;.;.>.>.@ @ @ @         ",
"                @ @ R R S S T T U U V V W W X X Y Y Z Z ` `  . .....+.+.@.@.#.#.$.$.%.%.&.&.*.*.=.=.-.-.;.;.>.>.@ @ @ @         ",
"            @ @ ,.,.'.'.).).!.!.~.~.).).{.{.].].^.^././.(.(._._.:.:.<.<.[.[.}.}.|.|.1.1.2.2.3.3.u u 4.4.;.;.5.5.6.6.7.7.@ @     ",
"            @ @ ,.,.'.'.).).!.!.~.~.).).{.{.].].^.^././.(.(._._.:.:.<.<.[.[.}.}.|.|.1.1.2.2.3.3.u u 4.4.;.;.5.5.6.6.7.7.@ @     ",
"        @ @ 8.8.9.9.0.0.a.a.b.b.9.9.c.c.d.d.e.e.f.f.g.g.h.h.i.i.j.j.k.k.l.l.m.m.n.n.n.n.o.o.p.p.q.q.4.4.r.r.[ [ s.s.t.t.@ @     ",
"        @ @ 8.8.9.9.0.0.a.a.b.b.9.9.c.c.d.d.e.e.f.f.g.g.h.h.i.i.j.j.k.k.l.l.m.m.n.n.n.n.o.o.p.p.q.q.4.4.r.r.[ [ s.s.t.t.@ @     ",
"        @ @ u.u.v.v.w.w.@ @ @ @ x.x.y.y.z.z.A.A.B.B.C.C.D.D.E.E.F.F.G.G.H.H.I.I.J.J.K.K.L.L.M.M.d d =.=.;.;.u u N.N.O.O.@ @     ",
"        @ @ u.u.v.v.w.w.@ @ @ @ x.x.y.y.z.z.A.A.B.B.C.C.D.D.E.E.F.F.G.G.H.H.I.I.J.J.K.K.L.L.M.M.d d =.=.;.;.u u N.N.O.O.@ @     ",
"        @ @ P.P.Q.Q.R.R.@ @ @ @ S.S.T.T.U.U.V.V.W.W.X.X.Y.Y.Z.Z.`.`. + +.+.+++++@+@+#+#+$+$+%+%+&+&+*+*+5.5.=+=+-+-+@ @         ",
"        @ @ P.P.Q.Q.R.R.@ @ @ @ S.S.T.T.U.U.V.V.W.W.X.X.Y.Y.Z.Z.`.`. + +.+.+++++@+@+#+#+$+$+%+%+&+&+*+*+5.5.=+=+-+-+@ @         ",
"        @ @ ;+;+>+>+,+,+@ @     @ @ '+'+)+)+!+!+~+~+{+{+]+]+^+^+/+/+(+(+_+_+:+:+<+<+[+[+}+}+|+|+1+1+L L 2+2+Q Q 3+3+@ @         ",
"        @ @ ;+;+>+>+,+,+@ @     @ @ '+'+)+)+!+!+~+~+{+{+]+]+^+^+/+/+(+(+_+_+:+:+<+<+[+[+}+}+|+|+1+1+L L 2+2+Q Q 3+3+@ @         ",
"        @ @ 4+4+5+5+6+6+@ @     @ @ 7+7+8+8+9+9+0+0+a+a+b+b+c+c+d+d+e+e+f+f+g+g+h+h+i+i+j+j+k+k+l+l+m+m+n+n+o+o+@ @             ",
"        @ @ 4+4+5+5+6+6+@ @     @ @ 7+7+8+8+9+9+0+0+a+a+b+b+c+c+d+d+e+e+f+f+g+g+h+h+i+i+j+j+k+k+l+l+m+m+n+n+o+o+@ @             ",
"      p+@ @ q+q+r+r+s+s+@ @     @ @ t+t+u+u+v+v+w+w+x+x+y+y+z+z+A+A+B+B+C+C+D+D+E+E+F+F+G+G+H+H+I+I+J+J+K+K+L+L+M+M+@ @         ",
"      p+@ @ q+q+r+r+s+s+@ @     @ @ t+t+u+u+v+v+w+w+x+x+y+y+z+z+A+A+B+B+C+C+D+D+E+E+F+F+G+G+H+H+I+I+J+J+K+K+L+L+M+M+@ @         ",
"      + @ @ N+N+O+O+P+P+@ @ @ @ @ @ Q+Q+R+R+S+S+T+T+U+U+V+V+W+W+X+X+Y+Y+Z+Z+`+`+ @ @.@.@+@+@@@@@#@#@$@$@%@%@&@&@*@*@@ @         ",
"      =@@ @ N+N+O+O+P+P+@ @ @ @ @ @ Q+Q+R+R+S+S+T+T+U+U+V+V+W+W+X+X+Y+Y+Z+Z+`+`+ @ @.@.@+@+@@@@@#@#@$@$@%@%@&@&@*@*@@ @ +       ",
"        @ @ -@-@;@;@>@>@,@,@'@'@@ @ )@)@!@!@~@~@{@{@]@]@^@^@/@/@(@(@_@_@:@:@.@.@<@<@[@[@}@}@|@|@1@1@2@2@3@3@4@4@5@5@@ @         ",
"        @ @ -@-@;@;@>@>@,@,@'@'@@ @ )@)@!@!@~@~@{@{@]@]@^@^@/@/@(@(@_@_@:@:@.@.@<@<@[@[@}@}@|@|@1@1@2@2@3@3@4@4@5@5@@ @         ",
"        @ @ 6@6@7@7@8@8@9@9@0@0@0@0@a@a@b@b@c@c@d@d@e@e@f@f@g@g@h@h@i@i@j@j@_@_@k@k@l@l@m@m@n@n@o@o@p@p@q@q@@ @ @ @ =@+ p+      ",
"        @ @ 6@6@7@7@8@8@9@9@0@0@0@0@a@a@b@b@c@c@d@d@e@e@f@f@g@g@h@h@i@i@j@j@_@_@k@k@l@l@m@m@n@n@o@o@p@p@q@q@@ @ @ @ =@+ p+      ",
"        @ @ r@r@s@s@t@t@u@u@v@v@w@w@x@x@y@y@z@z@A@A@B@B@C@C@D@D@E@E@F@F@G@G@H@H@I@I@J@J@K@K@L@L@M@M@N@N@@ @ 1 1 2 =@+ + =@      ",
"        @ @ r@r@s@s@t@t@u@u@v@v@w@w@x@x@y@y@z@z@A@A@B@B@C@C@D@D@E@E@F@F@G@G@H@H@I@I@J@J@K@K@L@L@M@M@N@N@@ @ 2 2 3 =@+ =@        ",
"            @ @ O@O@P@P@Q@Q@R@R@S@S@T@T@U@U@V@V@W@W@X@X@Y@Y@Z@Z@`@`@ # #.#.#+#+#@#@#####$#$#%#%#&#&#@ @   3 3 3     ! !         ",
"            @ @ O@O@P@P@Q@Q@R@R@S@S@T@T@U@U@V@V@W@W@X@X@Y@Y@Z@Z@`@`@ # #.#.#+#+#@#@#####$#$#%#%#&#&#@ @           ! 1 1 !       ",
"                @ @ @ @ @ @ *#*#4+4+=#=#-#-#;#;#>#>#,#,#'#'#)#)#!#!#~#~#{#{#]#]#^#^#/#/#(#(#_#_#:#:#@ @           3 ! ! 3       ",
"                @ @ @ @ @ @ *#*#4+4+=#=#-#-#;#;#>#>#,#,#'#'#)#)#!#!#~#~#{#{#]#]#^#^#/#/#(#(#_#_#:#:#@ @           3 ! ! 3       ",
"    p+p+            p+  @ @ <#<#[#[#}#}#|#|#1#1#2#2#3#3#4#4#5#5#6#6#7#7#8#8#9#9#0#0#a#a#b#b#c#c#@ @             2 2 3 3         ",
"      p++ +   + p+p+    @ @ <#<#[#[#}#}#|#|#1#1#2#2#3#3#4#4#5#5#6#6#7#7#8#8#9#9#0#0#a#a#b#b#c#c#@ @           2 1 2 3           ",
"+ p+p+=@+ =@+ + =@=@    @ @ d#d#e#e#f#f#g#g#h#h#i#i#j#j#k#k#l#l#m#m#n#n#o#o#p#p#q#q#r#r#s#s#t#t#@ @           2 2 3             ",
"  p++ u#u#=@+ + =@=@  p+@ @ d#d#e#e#f#f#g#g#h#h#i#i#j#j#k#k#l#l#m#m#n#n#o#o#p#p#q#q#r#r#s#s#t#t#@ @           3 3               ",
"  =@u#v#v#u#+ =@        @ @ w#w#x#x#y#y#z#z#A#A#B#B#C#C#D#D#E#E#F#F#G#G#H#H#I#I#_#_#J#J#K#K#L#L#@ @                             ",
"  =@u#v#v#u#+ =@        @ @ w#w#x#x#y#y#z#z#A#A#B#B#C#C#D#D#E#E#F#F#G#G#H#H#I#I#_#_#J#J#K#K#L#L#@ @                             ",
"    3 u#u#3             @ @ M#M#N#N#O#O#P#P#Q#Q#R#R#S#S#T#T#U#U#V#V#W#W#X#X#Y#Y#Z#Z#`#`# $ $.$.$@ @                             ",
"      3 3             +$@ @ M#M#N#N#O#O#P#P#Q#Q#R#R#S#S#T#T#U#U#V#V#W#W#X#X#Y#Y#Z#Z#`#`# $ $.$.$@ @                         p+p+",
"                    +$v#v#+$@ @ @$@$#$#$$$$$%$%$&$&$*$*$=$=$-$-$;$;$>$>$,$,$'$'$)$)$!$!$~$~${${$@ @               +     + + p+  ",
"                    3 +$+$3 @ @ @$@$#$#$$$$$%$%$&$&$*$*$=$=$-$-$;$;$>$>$,$,$'$'$)$)$!$!$~$~${${$@ @               p+p+=@+ + =@  ",
"                      3 3     v#@ @ ]$]$^$^$/$/$($($_$_$Q.Q.:$:$<$<$[$[$}$}$|$|$1$1$2$2$3$3$@ @                   p++ + =@=@    ",
"                      3 3     v#@ @ ]$]$^$^$/$/$($($_$_$Q.Q.:$:$<$<$[$[$}$}$|$|$1$1$2$2$3$3$@ @                   p++ + =@=@    ",
"                              3 3   @ @ @ @ 4$4$5$5$6$6$7$7$8$8$9$9$0$0$a$a$b$b$c$c$@ @ @ @                       =@+ +         ",
"                                    @ @ @ @ 4$4$5$5$6$6$7$7$8$8$9$9$0$0$a$a$b$b$c$c$@ @ @ @                                     ",
"                                            @ @ @ @ d$d$e$e$f$f$g$g$h$h$i$i$j$j$@ @                                             ",
"                                            @ @ @ @ d$d$e$e$f$f$g$g$h$h$i$i$j$j$@ @                                             ",
"                                                    @ @ @ @ @ @ @ @ @ @ @ @ @ @                                                 ",
"                                                    @ @ @ @ @ @ @ @ @ @ @ @ @ @                                                 ",
"                                                                                                                                ",
"                                                                                                                                "};
