/* XPM */
static char * open_xpm[] = {
"64 64 24 1",
" 	c #72751B",
".	c #1C1117",
"+	c #7F8226",
"@	c #787B21",
"#	c #523A42",
"$	c #656C17",
"%	c #422835",
"&	c #301D27",
"*	c #563F2A",
"=	c #9CA8AD",
"-	c #B3B0A9",
";	c #A2814F",
">	c #636917",
",	c #664729",
"'	c #8D6845",
")	c #7A5937",
"!	c #487085",
"~	c #5A8CA6",
"{	c #686F16",
"]	c #7F8124",
"^	c #35271F",
"/	c #C6A740",
"(	c #A2783C",
"_	c #BD9842",
"                  ............................             +    ",
"                  ............................            @@    ",
"            ......####..######..######..######......      @@    ",
"            ......####..######..######..######......      @@$   ",
"        ....######%%%%..%%%%&&..%%%%&&..%%%%&&..####....  $$@+  ",
"        ....######%%%%..%%%%&&..%%%%&&..%%%%&&..####....    @@  ",
"      ..####..&&%%............................##%%%%####..  $$  ",
"      ..####..&&%%............................##%%%%####..      ",
"    ..%%%%%%......                            ......%%%%&&..    ",
"    ..%%%%%%......                    ++     +......%%%%&&..    ",
"  ....&&&&....                         +@@ @+       ..........  ",
"  ....&&&&....                      @++$@$@@$       ..........  ",
"  ..##....**..                       +@@==@@$  --     ..####..  ",
"  ..##....**..                       $@=;;=$   ;-     ..####..  ",
"..%%%%##..**..                       $@=;;=$   ;-     ....%%%%..",
"..%%%%##..**..                        $>==>--  >>     ....%%%%..",
"..%%%%..**,,..                          >>-;-           ..&&&&..",
"..%%%%..**,,..                            -->           ..&&&&..",
"&&&&&&..'',,..                            >>            ........",
"&&&&&&..'',,..                                          ........",
"......**'',,..                                            ..####",
"......**'',,..                                            ..####",
"####..'')),,..                                            ..%%%%",
"####..'')),,..                                            ..%%%%",
"%%......)),,..                                            ..%%%%",
"%%......)),,..                                            ..%%%%",
"&&..!!....,,..                                            ..&&&&",
"&&..!!....,,..                     @@                     ..&&&&",
"....!!~~..,,..                     {]]                    ......",
"....!!~~..,,..                      ]@@   @               ......",
"##..!!....,,..                      {@@ ]@                ..####",
"##..!!....,,..                      {@@ ]@                ..####",
"%%......^^,,..                      {@@@//             ]  ..%%%%",
"%%......^^,,..                       {{/((/          @@@  ..%%%%",
"&&&&..^^))**..                         >//>__     @  @@{ @..&&&&",
"&&&&..^^))**..                          >> (_      ]@{{  @..&&&&",
"......))''**..                             >>      @@///@@......",
"......))''**..                             >>      @@///@@......",
"####..))''**......       @                          /(((/{..####",
"####..))''**......       @@                         >///>{..####",
"%%%%..))''**..!!..      --@                          >>>  ..%%%%",
"%%%%..))''**..!!..     -;-{                   ]]@        _..%%%%",
"&&&&..))))**..~~..     -->                     ]@@       >..&&&&",
"&&&&..))))**..~~..     -->                     ]@@       >..&&&&",
"......''))**..~~..     >>                      {@@      //......",
"......''))**..~~..                              {{     /(/......",
"####..''))**..!!..                                     //>..####",
"####..''))**..!!..                                     >> ..####",
"%%......)),,..~~..                                        ..%%%%",
"%%......)),,..~~..                                        ..%%%%",
"%%..!!....**....                   ]]    @@               ..&&&&",
"%%..!!....**....                    ]@ //@                ..&&&&",
"&&..!!~~..,,..                      {@@/(@               @......",
"&&..!!~~..,,.. ==                   {@@>>{               ]......",
"....!!....**.. ;=                    {{                  ]..####",
"....!!....**.. ;=                    {{                  ]..####",
"##......^^**.. >>                                        {..%%%%",
"##......^^**..                                            ..%%%%",
"%%%%..^^))**..                                            ..%%%%",
"%%%%..^^))**..                                            ..%%%%",
"&&&&..******..                                            ..&&&&",
"&&&&..******..                                            ..&&&&",
"............                                              ......",
"............                                              ......"};
